<svg width="0" height="0" style="display: none">

<symbol id="open-menu-icon" viewBox="-646.5 655.6 77 59.5">
    <path d="M-572.2 661h-71.7c-1.5 0-2.7-1.2-2.7-2.7 0-1.5 1.2-2.7 2.7-2.7h71.7c1.5 0 2.7 1.2 2.7 2.7 0 1.5-1.2 2.7-2.7 2.7zM-589.8 688.1h-54c-1.5 0-2.7-1.2-2.7-2.7 0-1.5 1.2-2.7 2.7-2.7h54c1.5 0 2.7 1.2 2.7 2.7-.1 1.5-1.3 2.7-2.7 2.7zM-597.3 715.2h-46.6c-1.5 0-2.7-1.2-2.7-2.7 0-1.5 1.2-2.7 2.7-2.7h46.6c1.5 0 2.7 1.2 2.7 2.7 0 1.5-1.2 2.7-2.7 2.7z"/>
</symbol>

<symbol id="scroll-down-icon" viewBox="-695 695.6 26 26.8">
    <circle class="scroll-down-icon__circle" cx="-682" cy="709" r="11.7"/>
    <path class="scroll-down-icon__arrow" d="M-676.7 707.3l-5.3 5.3-5.3-5.3"/>
</symbol>

<symbol id="twitter-icon" viewBox="-658 659.3 100 100">
    <path d="M-623.6 744.9c32.5-.8 50.3-27.9 50.3-51.4 0-.8 0-1.6-.1-2.3 3.6-2.5 6.6-5.7 9.1-9.4-3.3 1.4-6.8 2.4-10.5 2.8 3.8-2.2 6.6-5.8 8-10-3.5 2.1-7.4 3.6-11.6 4.4-3.3-3.5-8.1-5.7-13.3-5.7-10.1 0-18.2 8.1-18.2 18.1 0 1.4.2 2.8.5 4.1-15.1-.8-28.6-8-37.5-18.9-1.6 2.7-2.5 5.8-2.5 9.1 0 6.3 3.2 11.8 8.1 15-3-.1-5.8-.9-8.3-2.3v.2c0 8.8 6.3 16.1 14.6 17.7-1.5.4-3.1.6-4.8.6-1.2 0-2.3-.1-3.4-.3 2.3 7.2 9 12.4 17 12.6-6.2 4.8-14.1 7.7-22.6 7.7-1.5 0-2.9-.1-4.3-.3 7.8 4.9 17 7.9 26.8 8.1h2.7" />
</symbol>

<symbol id="linkedin-icon" viewBox="541 -486.7 2500 2389">
    <path d="M541-204.2c0-80.4 28.2-146.8 84.5-199.1 56.3-52.3 129.5-78.4 219.6-78.4 88.5 0 160.1 25.7 214.8 77.2 56.3 53.1 84.5 122.3 84.5 207.5 0 77.2-27.3 141.6-82 193.1-56.3 53.1-130.3 79.6-222 79.6H838c-88.5 0-160.1-26.5-214.8-79.6S541-123.7 541-204.2zm31.4 2111.5v-1612h535.7v1612H572.4zm832.5 0h535.7v-900.1c0-56.3 6.4-99.7 19.3-130.3 22.5-54.7 56.7-101 102.6-138.8 45.8-37.8 103.4-56.7 172.5-56.7 180.2 0 270.3 121.5 270.3 364.4v861.5H3041V983.1c0-238.1-56.3-418.7-168.9-541.7-112.6-123.1-261.4-184.6-446.4-184.6-207.5 0-369.2 89.3-485 267.9v4.8h-2.4l2.4-4.8V295.3H1405c3.2 51.5 4.8 211.5 4.8 480.2-.1 268.7-1.7 646-4.9 1131.8z" />
</symbol>

<symbol id="facebook-icon" viewBox="-59 -541.7 1298 2500">
    <path d="M783.5 1958V817.9h382.7l57.3-444.3h-440V89.9c0-128.6 35.7-216.3 220.2-216.3l235.3-.1v-397.4c-40.7-5.4-180.4-17.5-342.8-17.5-339.2 0-571.5 207.1-571.5 587.3v327.7H-59v444.3h383.7V1958h458.8z"/>
</symbol>

<symbol id="upwork-icon" viewBox="541 451.2 897.4 631.2">
    <path d="M1225.2 807.1c-40.6 0-78.7-17.2-113.3-45.2l8.4-39.5.4-1.5c7.5-42.1 31.3-112.7 104.5-112.7 54.9 0 99.6 44.7 99.6 99.6-.3 54.6-44.9 99.3-99.6 99.3zm0-299.8c-93.5 0-166 60.8-195.4 160.7-45-67.5-79.1-148.6-99-216.9H830.1V713c0 51.6-42.1 93.7-93.7 93.7s-93.7-42.1-93.7-93.7V451.2H542V713c-.4 107.2 86.9 195.3 194.2 195.3 107.2 0 194.5-88 194.5-195.3v-43.9c19.6 40.8 43.6 82 72.6 118.6l-61.7 289.9h103l44.6-210.3c39.2 25.1 84.2 40.8 135.8 40.8 110.3 0 200.2-90.4 200.2-200.8.2-110.1-89.7-200-200-200z" />    
</symbol>

</svg>