<svg xmlns="http://www.w3.org/2000/svg" viewBox="-658 646.3 100 125">
    <path d="M-572.1 706.3c5.5 0 9.9-4.4 10-9.9 0-5.5-4.4-9.9-9.9-10-1.3 0-2.6.3-3.9.8l-7.9-13.7c4.4-3.2 5.4-9.4 2.2-13.9s-9.4-5.4-13.9-2.2c-2.2 1.6-3.6 3.9-4 6.6h-16.3c-.8-5.4-5.9-9.1-11.3-8.3-5.4.8-9.1 5.9-8.3 11.3.4 2.4 1.6 4.6 3.5 6.1l-8.1 14c-5.1-2.1-10.9.3-13 5.3s.3 10.9 5.3 13c2.5 1 5.2 1 7.7 0l8.1 14c-4.3 3.5-4.9 9.8-1.4 14.1s9.8 4.9 14.1 1.4 4.9-9.8 1.4-14.1c-3-3.7-8.2-4.7-12.4-2.5l-8-13.9c4.5-3.1 5.7-9.3 2.6-13.8-.7-1-1.6-1.9-2.6-2.6l8-13.9c4.8 2.6 10.8.7 13.4-4.1.7-1.3 1.1-2.7 1.1-4.1h16.2c.3 5.5 4.9 9.7 10.4 9.4 1.3-.1 2.5-.4 3.6-.9l7.9 13.7c-4.5 3.1-5.7 9.3-2.6 13.8.7 1 1.6 1.9 2.6 2.6l-7.8 13.7c-5-2.3-11-.1-13.2 5s-.1 11 5 13.2 11 .1 13.2-5c2-4.3.6-9.5-3.2-12.2l7.9-13.7c1 .5 2.3.8 3.6.8zm-53.6 13c4.4 0 7.9 3.6 7.9 7.9s-3.6 7.9-7.9 7.9c-4.4 0-7.9-3.6-7.9-7.9 0-4.3 3.6-7.9 7.9-7.9zm-10.3-23c0 4.4-3.6 7.9-7.9 7.9s-7.9-3.6-7.9-7.9 3.6-7.9 7.9-7.9c4.3 0 7.9 3.5 7.9 7.9zm10.3-23c-4.4 0-7.9-3.6-7.9-7.9s3.6-7.9 7.9-7.9 7.9 3.6 7.9 7.9c0 4.3-3.5 7.9-7.9 7.9zm39.7-.9c-3.9 2.1-8.7.6-10.8-3.2s-.6-8.7 3.2-10.8c3.9-2.1 8.7-.6 10.8 3.2.6 1.2 1 2.4 1 3.8 0 2.9-1.6 5.6-4.2 7zm4.2 54.8c.1 4.4-3.5 8-7.8 8-4.4.1-8-3.5-8-7.8-.1-4.4 3.5-8 7.8-8h.1c4.4-.1 7.9 3.4 7.9 7.8zm1.8-30.9c0-4.4 3.6-7.9 7.9-7.9s7.9 3.6 7.9 7.9-3.6 7.9-7.9 7.9c-4.3.1-7.9-3.5-7.9-7.9z"/>
</svg>